<?xml version="1.0" encoding="utf-8"?>
<!-- Svg Vector Icons : http://www.onlinewebfonts.com/icon -->
<!DOCTYPE svg PUBLIC "-//W3C//DTD SVG 1.1//EN" "http://www.w3.org/Graphics/SVG/1.1/DTD/svg11.dtd">
<svg version="1.1" xmlns="http://www.w3.org/2000/svg" xmlns:xlink="http://www.w3.org/1999/xlink" x="0px" y="0px" viewBox="0 0 1000 1000" enable-background="new 0 0 1000 1000" xml:space="preserve">
<metadata> Svg Vector Icons : http://www.onlinewebfonts.com/icon </metadata>
<g><path d="M767.8,500.1c0,24.6-19.9,44.5-44.5,44.5l-335,0.3l102,102.5c17.4,17.4,17.4,45.6,0,63c-17.4,17.4-45.6,17.4-63,0l-168-168.7c0,0-27.7-24.7-27.7-41.2c0-19,24.3-40,24.3-40c0,0,0,0,0,0c0,0.1,0,0,0,0l171.4-172.1c17.4-17.4,45.6-17.4,63,0s17.4,45.6,0,63l-104,104.5l337.1-0.3C747.9,455.5,767.8,475.5,767.8,500.1z M929.7,735.6c-10.5,18.2-23.9,31.1-42.5,31.9c-24.6,1-44.5-19.9-44.5-44.5l0.4-4.1c2.6-15,14.2-33.4,20.5-48.4l0,0c24.5-52,38.7-109.8,38.7-171c0-221.8-179.8-401.5-401.6-401.5c-221.8,0-401.6,179.8-401.6,401.5c0,221.7,179.8,401.5,401.6,401.5c88.3,0,169.7-28.9,236-77.2c11.2-7.1,20.7-14.5,32.6-14.4c24.6,0.4,44.5,19.9,44.5,44.5l-0.4,4.1c-2.4,19.3-19.6,33.4-31.8,42.5c-79.7,56.2-176.7,89.5-281.6,89.5C229.4,989.9,10,770.6,10,500C10,229.4,229.4,10.1,500,10.1c270.6,0,490,219.4,490,489.9C990,585.4,968.1,665.6,929.7,735.6z"/></g>
</svg>