<?xml version="1.0" encoding="utf-8"?>
<!-- Svg Vector Icons : http://www.onlinewebfonts.com/icon -->
<!DOCTYPE svg PUBLIC "-//W3C//DTD SVG 1.1//EN" "http://www.w3.org/Graphics/SVG/1.1/DTD/svg11.dtd">
<svg version="1.1" xmlns="http://www.w3.org/2000/svg" xmlns:xlink="http://www.w3.org/1999/xlink" x="0px" y="0px" viewBox="0 0 1000 1000" enable-background="new 0 0 1000 1000" xml:space="preserve">
<metadata> Svg Vector Icons : http://www.onlinewebfonts.com/icon </metadata>
<g><g transform="translate(0.000000,511.000000) scale(0.100000,-0.100000)"><path d="M6951.7,5004.6c-166.3-33.3-394-125.3-537.2-217.4c-1018.1-657.4-857-2164.2,276.3-2599.1c227.7-87,608.8-110,849.3-48.6c685.6,171.4,1174.2,836.5,1115.3,1517c-69,767.4-644.6,1325.1-1396.7,1350.7C7125.6,5012.3,6987.5,5009.8,6951.7,5004.6z M7258.7,4227c0-38.4,17.9-51.2,66.5-51.2c97.2,0,207.2-74.2,253.3-168.8c66.5-140.7,53.7-163.7-89.5-163.7c-115.1,0-133,7.7-153.5,64c-38.4,102.3-76.8,74.2-76.8-56.3c0-122.8,0-122.8,133-186.7c79.3-38.4,158.6-99.8,194.4-153.5c125.4-184.2,15.4-429.8-217.4-493.7c-97.2-25.6-110-38.4-110-99.8c0-53.7-12.8-71.6-51.2-71.6c-40.9,0-51.2,17.9-51.2,76.7c0,66.5-10.3,76.7-66.5,76.7c-120.2,0-235.4,74.2-291.6,189.3c-81.9,174-74.2,194.4,87,194.4c130.4,0,138.1-2.6,150.9-74.2c10.2-43.5,35.8-76.7,66.5-87c48.6-12.8,53.7-2.6,53.7,122.8v138.1l-140.7,64c-217.4,99.8-296.7,273.7-204.6,452.8c46.1,87,176.5,176.5,263.5,176.5c38.4,0,56.3,15.4,56.3,51.2c0,38.4,17.9,51.2,64,51.2S7258.7,4265.3,7258.7,4227z"/><path d="M7071.9,3955.8c-28.1-28.1-20.5-125.3,12.8-158.6c53.7-53.7,74.2-33.3,66.5,64C7143.6,3950.7,7107.7,3991.6,7071.9,3955.8z"/><path d="M7258.7,3331.6c0-74.2,10.2-102.3,38.4-102.3c51.2,0,76.7,117.7,38.4,166.3C7281.7,3459.5,7258.7,3439.1,7258.7,3331.6z"/><path d="M4657,2730.4c-268.6-58.8-483.5-181.6-700.9-396.5c-299.3-296.7-432.3-603.7-437.4-1013c-2.5-417,133-754.7,424.7-1046.3C4234.9-17,4549.6-147.5,4969.1-147.5c432.3,0,726.5,122.8,1036.1,434.9c501.4,501.4,573,1235.6,176.5,1829.1C5846.6,2615.3,5245.4,2858.4,4657,2730.4z M5033.1,1978.4c0-35.8,25.6-51.2,97.2-64c117.7-17.9,227.7-125.3,250.7-240.5l17.9-81.9h-130.5c-104.9,0-133,10.2-145.8,48.6c-7.7,28.1-30.7,56.3-51.2,64c-30.7,10.2-38.4-12.8-38.4-107.4v-122.8l140.7-69.1c227.7-110,304.4-312.1,194.4-493.7c-51.2-81.9-189.3-163.7-281.4-163.7c-43.5,0-53.7-15.4-53.7-89.5c0-71.6-10.2-89.5-51.2-89.5c-40.9,0-51.2,17.9-51.2,89.5c0,84.4-5.1,89.5-79.3,89.5c-161.2,0-291.6,130.5-309.5,307c-7.7,58.8,0,64,115.1,71.6c112.6,7.7,122.8,2.6,148.4-64c25.6-66.5,64-110,107.4-110c10.2,0,17.9,61.4,17.9,138.1v135.6l-110,43.5c-342.8,130.5-365.8,524.4-38.4,629.3c71.6,23,125.3,56.3,133,84.4C4930.8,2044.9,5033.1,2042.3,5033.1,1978.4z"/><path d="M4861.7,1702.1c-64-25.6-23-186.7,48.6-186.7c10.2,0,20.5,46,20.5,102.3C4930.8,1720,4923.1,1727.7,4861.7,1702.1z"/><path d="M5033.1,1067.7c0-110,2.5-115.1,51.2-89.5c56.3,30.7,69.1,125.3,20.5,173.9C5051,1205.8,5033.1,1185.3,5033.1,1067.7z"/><path d="M300.5-2437v-2238.4h1509.3h1509.3v358.1c0,337.7,2.6,358.1,48.6,358.1c117.7,0,468.1-135.6,693.3-271.2c475.8-281.4,775.1-401.6,1235.6-498.8c317.2-69.1,946.5-81.9,1245.8-25.6c463,81.8,1015.6,317.2,1355.8,573c235.4,179.1,949.1,864.7,1322.6,1271.4c406.7,440,478.4,575.6,478.4,892.8c2.5,194.4-7.7,240.4-79.3,391.4c-135.6,286.5-363.3,465.6-677.9,529.5c-337.7,71.6-603.7-69.1-1153.7-608.8c-273.7-268.6-332.6-314.7-353-278.8c-56.3,99.8-232.8,301.9-358.1,409.3C6585.9-1160.5,5902.9-897,4866.8-730.7c-130.5,20.5-450.2,33.3-877.4,33.3h-670.2v250.7v248.2H1809.8H300.5V-2437z M4695.4-1198.9c519.3-56.3,1071.9-209.8,1476.1-411.9c404.2-204.6,805.8-534.6,846.7-698.4c28.1-110-5.1-283.9-66.5-370.9c-69.1-94.6-230.2-176.5-353-179.1c-148.4,0-463,76.7-846.8,209.8c-204.6,69.1-396.5,133-424.6,140.7c-43.5,10.3-63.9-20.4-133-209.8c-46-122.8-79.3-232.8-71.6-243c25.6-43.5,956.8-330,1199.8-370.9c542.3-89.5,908.1,74.2,1128.1,506.5c145.8,286.5,496.3,683,867.2,979.8c263.5,212.3,399.1,273.7,532.1,253.2c186.7-33.2,353-235.3,353-427.2c-2.6-179.1-81.9-273.7-872.3-1056.5c-741.9-731.6-787.9-775.1-1007.9-887.7c-908.2-465.6-1992.8-427.2-2857.5,102.3c-360.7,222.6-713.7,360.7-1010.5,401.6l-135.6,17.9v1107.7v1110.3l148.4,15.3c79.3,7.7,163.7,20.5,184.2,23C3746.3-1165.6,4470.3-1173.3,4695.4-1198.9z"/></g></g>
</svg>