<?xml version="1.0" encoding="utf-8"?>
<!-- Svg Vector Icons : http://www.onlinewebfonts.com/icon -->
<!DOCTYPE svg PUBLIC "-//W3C//DTD SVG 1.1//EN" "http://www.w3.org/Graphics/SVG/1.1/DTD/svg11.dtd">
<svg version="1.1" xmlns="http://www.w3.org/2000/svg" xmlns:xlink="http://www.w3.org/1999/xlink" x="0px" y="0px" viewBox="0 0 1000 1000" enable-background="new 0 0 1000 1000" xml:space="preserve">
<metadata> Svg Vector Icons : http://www.onlinewebfonts.com/icon </metadata>
<g><path d="M966.9,733.8c-13.1-11.7-29.7-17.1-46.5-15.2c-14.9,1.7-32.2,4.6-51,8.2v-468c0-31.9-25.9-57.8-57.8-57.8h-92.5v-56c0-70.6-57.4-128-128-128c-70.6,0-128,57.4-128,128v56h-92.5c-31.9,0-57.8,25.9-57.8,57.8v299.8c-40.8,7.1-92.9,23.2-135,59.1c-13.9,11.9-25,23.1-33.8,33.3c-9.3-11.7-23.7-19.2-39.7-19.2H31.8c-12,0-21.8,9.8-21.8,21.8v307.7c0,5.8,2.3,11.3,6.4,15.4c4.1,4.1,9.6,6.4,15.4,6.4l72.5,0c28.1,0,50.9-22.8,50.9-50.9v-16.7c21.7,1.4,70.8,6.7,174.8,26.2c122.8,23.1,199.4,30.9,259.8,30.9c43.3,0,78.2-4,115.8-9.3c46.4-6.5,104.9-23.1,156.4-37.6c23.9-6.7,46.4-13.1,66.3-18.1C982,893.9,990,860,990,841v-55.5C990,766,981.4,746.7,966.9,733.8z M506.7,145c0-46.6,37.9-84.4,84.4-84.4c46.6,0,84.4,37.9,84.4,84.4v56l-168.9,0L506.7,145L506.7,145z M356.4,258.7c0-7.8,6.4-14.2,14.2-14.2h92.5v48.1c0,12,9.8,21.8,21.8,21.8c12,0,21.8-9.8,21.8-21.8v-48.1l168.9,0v48.1c0,12,9.8,21.8,21.8,21.8c12,0,21.8-9.8,21.8-21.8v-48.1h92.5c7.8,0,14.2,6.4,14.2,14.2v474.6c0,0.7,0,1.4,0.1,2.1c-3.3,0.7-6.6,1.4-9.9,2c-52.9,10.9-107.5,22.2-149.4,24.8c-36.1,2.3-102-7.2-121.5-17.4c-13.2-6.9-20.5-15.3-24.6-22.8h81.1c33.5,0,60.7-27.2,60.7-60.7v-47.7c0-33.5-27.2-60.7-60.7-60.7H379.3c-2.3-0.1-10.6-0.2-22.9,0.5V258.7L356.4,258.7z M111.6,932.1c0,4-3.3,7.3-7.3,7.3l-50.7,0V675.3h50.7c4,0,7.3,3.3,7.3,7.3L111.6,932.1L111.6,932.1z M946.4,841c0,4.6,0,16.9-28.8,24.2c-20.5,5.2-43.4,11.6-67.5,18.5c-50.2,14.2-107.1,30.3-150.6,36.4c-85.7,12.1-157.2,17.1-361.4-21.2c-105.1-19.7-157.2-25.7-182.8-27.1V710c0.8-1,1.5-2,2.1-3.1c5.6-10.2,19.3-31,48.8-56.1c67.2-57.3,171-54.2,172-54.2c0.3,0,0.6,0,0.8,0h222.8c9.5,0,17.1,7.7,17.1,17.1v47.7c0,9.4-7.7,17.1-17.1,17.1H378.9c-12,0-21.8,9.8-21.8,21.8s9.8,21.8,21.8,21.8h95.4c4.5,17.9,16.8,43.7,50.7,61.4c31,16.2,107.8,24.6,144.4,22.3c44.9-2.8,101.1-14.4,155.5-25.6c38.2-7.9,74.2-15.3,100.5-18.3c5.5-0.6,9.9,2.1,12.5,4.4c5.3,4.7,8.5,12.1,8.5,19.2L946.4,841L946.4,841z"/><g></g><g></g><g></g><g></g><g></g><g></g><g></g><g></g><g></g><g></g><g></g><g></g><g></g><g></g><g></g></g>
</svg>