<?xml version="1.0" encoding="utf-8"?>
<!-- Svg Vector Icons : http://www.onlinewebfonts.com/icon -->
<!DOCTYPE svg PUBLIC "-//W3C//DTD SVG 1.1//EN" "http://www.w3.org/Graphics/SVG/1.1/DTD/svg11.dtd">
<svg version="1.1" xmlns="http://www.w3.org/2000/svg" xmlns:xlink="http://www.w3.org/1999/xlink" x="0px" y="0px" viewBox="0 0 1000 1000" enable-background="new 0 0 1000 1000" xml:space="preserve">
<metadata> Svg Vector Icons : http://www.onlinewebfonts.com/icon </metadata>
<g><path d="M844.2,150.8c22.3,0,40.8,3.7,55.3,11.2c14.5,7.4,26.1,16.8,34.6,27.9c8.6,11.2,14.5,23.3,17.9,36.3c3.4,13,5,25.1,5,36.3c0,5.2-0.2,9.3-0.6,12.3c-0.4,3-0.6,5.6-0.6,7.8v6.7h-73.8V876c0,14.9-3,29.2-8.9,43c-6,13.8-14.5,25.9-25.7,36.3c-11.2,10.4-24.8,18.8-40.8,25.1c-16,6.3-34.5,9.5-55.3,9.5H253c-19.4,0-37.6-3-54.8-8.9c-17.1-6-31.8-14.3-44.1-25.1c-12.3-10.8-22-23.8-29.1-39.1s-10.6-32.6-10.6-52V289.4H45.2c-0.7-0.7-1.1-2.6-1.1-5.6c-0.7-3.7-1.1-15.3-1.1-34.6c0-9.7,2.2-20.5,6.7-32.4c4.5-11.9,11.2-22.9,20.1-33c8.9-10.1,20.5-18.4,34.6-25.1c14.2-6.7,30.9-10.1,50.3-10.1h99.5V80.4c0-19.4,6.7-35.9,20.1-49.7C287.7,16.9,304.1,10,323.4,10h349.8c26.1,0,44.1,6.9,54.2,20.7c10.1,13.8,15.1,30.4,15.1,49.7v69.3c15.6,0.7,32.4,1.1,50.3,1.1L844.2,150.8L844.2,150.8z M323.4,150.8h349.8V80.4H323.4V150.8L323.4,150.8z M288.8,858.1c23.8,0,35.8-15.3,35.8-45.8V293.8h-69.3v518.5c0,15.6,2.4,27.2,7.3,34.6C267.4,854.4,276.1,858.1,288.8,858.1z M500,857c12.7,0,21.2-3.5,25.7-10.6c4.5-7.1,6.7-18.4,6.7-34.1V293.8h-69.3v518.5C463.1,842.1,475.4,857,500,857z M710.1,854.8c13.4,0,22.3-3.5,26.8-10.6c4.5-7.1,6.7-18.4,6.7-34.1V293.8h-70.4v516.3C673.2,839.9,685.5,854.8,710.1,854.8L710.1,854.8z"/></g>
</svg>