<?xml version="1.0" encoding="utf-8"?>
<!-- Svg Vector Icons : http://www.onlinewebfonts.com/icon -->
<!DOCTYPE svg PUBLIC "-//W3C//DTD SVG 1.1//EN" "http://www.w3.org/Graphics/SVG/1.1/DTD/svg11.dtd">
<svg version="1.1" xmlns="http://www.w3.org/2000/svg" xmlns:xlink="http://www.w3.org/1999/xlink" x="0px" y="0px" viewBox="0 0 1000 1000" enable-background="new 0 0 1000 1000" xml:space="preserve">
<metadata> Svg Vector Icons : http://www.onlinewebfonts.com/icon </metadata>
<g><path d="M500,10C229.8,10,10,229.8,10,500c0,270.1,219.8,490,490,490c270.1,0,490-219.9,490-490C990,229.8,770.1,10,500,10z M500,80c231.9,0,420,188.2,420,420c0,93.7-31,179.8-82.8,249.6c-51-80-128.9-141-221.5-168.6c54.2-37.1,89.9-99.3,89.9-169.8c0-113.4-92.2-205.7-205.7-205.7c-113.4,0-205.7,92.3-205.7,205.7c0,71.1,36.3,133.8,91.3,170.7c-92.5,28.5-170.3,90.2-220.6,170.8C111.9,682.3,80,595,80,500C80,268.1,268.1,80,500,80z M364.4,411.2c0-74.8,60.8-135.7,135.7-135.7s135.7,60.8,135.7,135.7s-61,135.7-135.7,135.7S364.4,486,364.4,411.2z M214.5,807.4c55.3-102.8,163-173.2,287.6-173.2c123.6,0,230.5,69.1,286.4,170.3C713.3,876,611.9,920,500,920C389.6,920,289.5,877.1,214.5,807.4z"/></g>
</svg>